<?xml version="1.0" encoding="UTF-8"?>
<svg id="_图层_1" data-name="图层 1" xmlns="http://www.w3.org/2000/svg" viewBox="0 0 812.71 634.96">
  <defs>
    <style>
      .cls-1 {
        fill: #132f4d;
      }

      .cls-2 {
        isolation: isolate;
      }
    </style>
  </defs>
  <g class="cls-2">
    <path class="cls-1" d="m799.84,149.68L546.56,3.45c-7.98-4.61-17.82-4.59-25.79.03l-251.64,146.24c-7.9,4.59-12.78,13.03-12.8,22.17l-.13,45.94c-.02,6.41,5.17,11.62,11.58,11.62h0c6.46,0,11.7-5.23,11.72-11.69l.03-9.92c.03-9.04,9.82-14.68,17.65-10.16l213.9,123.49c6.69,3.87,10.81,11.01,10.79,18.74l-.7,248.31c-.02,7.85-8.52,12.74-15.31,8.81l-216.23-124.84c-6.7-3.87-10.81-11.02-10.79-18.75v-2.09c.02-6.58-5.31-11.93-11.89-11.93h0c-6.29,0-11.39,5.09-11.4,11.37l-.03,12.12c-.03,9.22,4.88,17.75,12.86,22.36l253.28,146.23c7.98,4.61,17.82,4.59,25.79-.04l251.64-146.23c7.9-4.59,12.78-13.03,12.8-22.17l.82-291.04c.03-9.21-4.88-17.74-12.86-22.35Zm-253.71,148.21c-6.69,3.88-14.94,3.9-21.63.03l-215.13-124.2c-7.28-4.21-7.29-14.71-.03-18.93l213.6-124.13c6.69-3.88,14.94-3.9,21.63-.03l214.47,123.83c7.57,4.37,7.59,15.3.03,19.7l-212.94,123.75Zm82.94,229.05l-55.8,35.44c-7.29,4.63-12.98,5.89-17.1,3.78-4.12-2.1-6.17-8.93-6.17-20.47v-152.84c0-11.65,2.05-21.13,6.17-28.47,4.11-7.33,9.85-13.34,17.22-18.02l55.54-35.27c15.85-10.08,23.78-6.88,23.78,9.59s-7.93,29.73-23.78,39.8l-34.33,21.8v34.33l27-17.15c14.23-9.03,21.34-6.27,21.34,8.28s-7.12,26.36-21.34,35.39l-27,17.15v39.3l34.45-21.88c15.85-10.08,23.78-6.93,23.78,9.44s-7.93,29.73-23.78,39.8Zm128.31-132.84c15.85-10.07,23.78-6.52,23.78,10.65s-7.93,30.63-23.78,40.7l-72.51,46.06c-8.14,5.17-14.12,6.43-17.93,3.78-3.81-2.64-5.72-7.43-5.72-14.36s1.8-15.5,5.4-24.82l58.76-154.92-36.25,23.02c-15.94,10.13-23.92,6.61-23.92-10.56s7.97-30.66,23.92-40.79l68.91-43.77c8.14-5.17,14.13-6.43,17.93-3.78,3.81,2.65,5.72,7.43,5.72,14.36s-1.76,15.47-5.27,24.73l-58.76,154.92,39.73-25.23Z"/>
  </g>
  <rect class="cls-1" x="97.22" y="260.11" width="255.11" height="28.78" rx="14.39" ry="14.39"/>
  <rect class="cls-1" x="0" y="316.88" width="255.11" height="28.78" rx="14.39" ry="14.39"/>
  <rect class="cls-1" x="49.78" y="373.66" width="255.11" height="28.78" rx="14.39" ry="14.39"/>
</svg>